<?xml version="1.0" encoding="UTF-8" standalone="no"?>
<!DOCTYPE svg PUBLIC "-//W3C//DTD SVG 1.1//EN" "http://www.w3.org/Graphics/SVG/1.1/DTD/svg11.dtd">
<svg xmlns="http://www.w3.org/2000/svg" version="1.1" viewBox="0.00 0.00 736.00 490.00">
<g stroke-width="2.00" fill="none" stroke-linecap="butt">
<path stroke="#808080" vector-effect="non-scaling-stroke" d="
  M 526.04 156.46
  A 4.86 4.86 0.0 0 0 521.18 151.60
  L 520.92 151.60
  A 4.86 4.86 0.0 0 0 516.06 156.46
  L 516.06 186.36
  A 4.86 4.86 0.0 0 0 520.92 191.22
  L 521.18 191.22
  A 4.86 4.86 0.0 0 0 526.04 186.36
  L 526.04 156.46"
/>
<path stroke="#808080" vector-effect="non-scaling-stroke" d="
  M 506.2654 186.1413
  A 4.88 4.88 0.0 0 0 501.3769 181.2698
  L 501.1369 181.2702
  A 4.88 4.88 0.0 0 0 496.2655 186.1588
  L 496.3346 225.7587
  A 4.88 4.88 0.0 0 0 501.2231 230.6302
  L 501.4631 230.6298
  A 4.88 4.88 0.0 0 0 506.3345 225.7412
  L 506.2654 186.1413"
/>
<path stroke="#808080" vector-effect="non-scaling-stroke" d="
  M 524.4223 205.1825
  A 4.75 4.75 0.0 0 0 519.6558 200.4492
  L 519.1358 200.4510
  A 4.75 4.75 0.0 0 0 514.4024 205.2175
  L 514.4377 215.3375
  A 4.75 4.75 0.0 0 0 519.2042 220.0708
  L 519.7242 220.0690
  A 4.75 4.75 0.0 0 0 524.4576 215.3025
  L 524.4223 205.1825"
/>
<path stroke="#808080" vector-effect="non-scaling-stroke" d="
  M 355.7062 208.1886
  A 4.72 4.72 0.0 0 0 350.9945 203.4604
  L 350.5745 203.4597
  A 4.72 4.72 0.0 0 0 345.8462 208.1714
  L 345.7938 238.2314
  A 4.72 4.72 0.0 0 0 350.5055 242.9596
  L 350.9255 242.9603
  A 4.72 4.72 0.0 0 0 355.6538 238.2486
  L 355.7062 208.1886"
/>
<path stroke="#808080" vector-effect="non-scaling-stroke" d="
  M 485.8775 235.4087
  A 4.79 4.79 0.0 0 0 481.0958 230.6103
  L 480.7358 230.6097
  A 4.79 4.79 0.0 0 0 475.9375 235.3913
  L 475.9025 255.4113
  A 4.79 4.79 0.0 0 0 480.6842 260.2097
  L 481.0442 260.2103
  A 4.79 4.79 0.0 0 0 485.8425 255.4287
  L 485.8775 235.4087"
/>
<path stroke="#808080" vector-effect="non-scaling-stroke" d="
  M 338.6088 237.8887
  A 4.75 4.75 0.0 0 0 333.8671 233.1305
  L 333.3671 233.1296
  A 4.75 4.75 0.0 0 0 328.6089 237.8713
  L 328.5912 248.0113
  A 4.75 4.75 0.0 0 0 333.3329 252.7695
  L 333.8329 252.7704
  A 4.75 4.75 0.0 0 0 338.5911 248.0287
  L 338.6088 237.8887"
/>
<path stroke="#808080" vector-effect="non-scaling-stroke" d="
  M 318.6738 247.6414
  A 4.80 4.80 0.0 0 0 313.8654 242.8498
  L 313.5854 242.8503
  A 4.80 4.80 0.0 0 0 308.7938 247.6586
  L 308.8462 277.7186
  A 4.80 4.80 0.0 0 0 313.6546 282.5102
  L 313.9346 282.5097
  A 4.80 4.80 0.0 0 0 318.7262 277.7014
  L 318.6738 247.6414"
/>
<path stroke="#808080" vector-effect="non-scaling-stroke" d="
  M 368.05 250.09
  A 4.74 4.74 0.0 0 0 363.31 245.35
  L 362.95 245.35
  A 4.74 4.74 0.0 0 0 358.21 250.09
  L 358.21 270.29
  A 4.74 4.74 0.0 0 0 362.95 275.03
  L 363.31 275.03
  A 4.74 4.74 0.0 0 0 368.05 270.29
  L 368.05 250.09"
/>
<path stroke="#808080" vector-effect="non-scaling-stroke" d="
  M 387.88 255.12
  A 4.84 4.84 0.0 0 0 383.04 250.28
  L 382.76 250.28
  A 4.84 4.84 0.0 0 0 377.92 255.12
  L 377.92 285.00
  A 4.84 4.84 0.0 0 0 382.76 289.84
  L 383.04 289.84
  A 4.84 4.84 0.0 0 0 387.88 285.00
  L 387.88 255.12"
/>
<path stroke="#808080" vector-effect="non-scaling-stroke" d="
  M 466.72 255.08
  A 4.79 4.79 0.0 0 0 461.93 250.29
  L 461.61 250.29
  A 4.79 4.79 0.0 0 0 456.82 255.08
  L 456.82 285.06
  A 4.79 4.79 0.0 0 0 461.61 289.85
  L 461.93 289.85
  A 4.79 4.79 0.0 0 0 466.72 285.06
  L 466.72 255.08"
/>
<path stroke="#808080" vector-effect="non-scaling-stroke" d="
  M 279.3125 267.4113
  A 4.83 4.83 0.0 0 0 274.4741 262.5897
  L 274.1141 262.5903
  A 4.83 4.83 0.0 0 0 269.2925 267.4288
  L 269.3275 287.4887
  A 4.83 4.83 0.0 0 0 274.1659 292.3103
  L 274.5259 292.3097
  A 4.83 4.83 0.0 0 0 279.3475 287.4712
  L 279.3125 267.4113"
/>
<path stroke="#808080" vector-effect="non-scaling-stroke" d="
  M 407.5440 274.9013
  A 4.85 4.85 0.0 0 0 402.6856 270.0598
  L 402.3856 270.0603
  A 4.85 4.85 0.0 0 0 397.5440 274.9187
  L 397.5960 304.6787
  A 4.85 4.85 0.0 0 0 402.4544 309.5202
  L 402.7544 309.5197
  A 4.85 4.85 0.0 0 0 407.5960 304.6613
  L 407.5440 274.9013"
/>
<path stroke="#808080" vector-effect="non-scaling-stroke" d="
  M 299.06 277.21
  A 4.69 4.69 0.0 0 0 294.37 272.52
  L 293.87 272.52
  A 4.69 4.69 0.0 0 0 289.18 277.21
  L 289.18 287.59
  A 4.69 4.69 0.0 0 0 293.87 292.28
  L 294.37 292.28
  A 4.69 4.69 0.0 0 0 299.06 287.59
  L 299.06 277.21"
/>
<path stroke="#808080" vector-effect="non-scaling-stroke" d="
  M 239.8875 284.6987
  A 4.80 4.80 0.0 0 0 235.0959 279.8903
  L 234.7359 279.8897
  A 4.80 4.80 0.0 0 0 229.9275 284.6813
  L 229.8925 304.7613
  A 4.80 4.80 0.0 0 0 234.6841 309.5697
  L 235.0441 309.5703
  A 4.80 4.80 0.0 0 0 239.8525 304.7787
  L 239.8875 284.6987"
/>
<path stroke="#808080" vector-effect="non-scaling-stroke" d="
  M 427.36 284.75
  A 4.83 4.83 0.0 0 0 422.53 279.92
  L 422.17 279.92
  A 4.83 4.83 0.0 0 0 417.34 284.75
  L 417.34 304.69
  A 4.83 4.83 0.0 0 0 422.17 309.52
  L 422.53 309.52
  A 4.83 4.83 0.0 0 0 427.36 304.69
  L 427.36 284.75"
/>
<path stroke="#808080" vector-effect="non-scaling-stroke" d="
  M 447.09 284.67
  A 4.79 4.79 0.0 0 0 442.30 279.88
  L 442.00 279.88
  A 4.79 4.79 0.0 0 0 437.21 284.67
  L 437.21 314.65
  A 4.79 4.79 0.0 0 0 442.00 319.44
  L 442.30 319.44
  A 4.79 4.79 0.0 0 0 447.09 314.65
  L 447.09 284.67"
/>
<path stroke="#808080" vector-effect="non-scaling-stroke" d="
  M 259.5761 294.5487
  A 4.84 4.84 0.0 0 0 254.7446 289.7003
  L 254.4646 289.6998
  A 4.84 4.84 0.0 0 0 249.6162 294.5313
  L 249.5639 324.4913
  A 4.84 4.84 0.0 0 0 254.3954 329.3397
  L 254.6754 329.3402
  A 4.84 4.84 0.0 0 0 259.5238 324.5087
  L 259.5761 294.5487"
/>
<path stroke="#808080" vector-effect="non-scaling-stroke" d="
  M 220.0037 304.3115
  A 4.78 4.78 0.0 0 0 215.2154 299.5398
  L 214.9554 299.5403
  A 4.78 4.78 0.0 0 0 210.1837 304.3286
  L 210.2363 334.4285
  A 4.78 4.78 0.0 0 0 215.0246 339.2002
  L 215.2846 339.1997
  A 4.78 4.78 0.0 0 0 220.0563 334.4114
  L 220.0037 304.3115"
/>
</g>
<path fill="#ffffff" d="
  M 736.00 0.00
  L 736.00 490.00
  L 0.00 490.00
  L 0.00 0.00
  L 736.00 0.00
  Z
  M 526.04 156.46
  A 4.86 4.86 0.0 0 0 521.18 151.60
  L 520.92 151.60
  A 4.86 4.86 0.0 0 0 516.06 156.46
  L 516.06 186.36
  A 4.86 4.86 0.0 0 0 520.92 191.22
  L 521.18 191.22
  A 4.86 4.86 0.0 0 0 526.04 186.36
  L 526.04 156.46
  Z
  M 506.2654 186.1413
  A 4.88 4.88 0.0 0 0 501.3769 181.2698
  L 501.1369 181.2702
  A 4.88 4.88 0.0 0 0 496.2655 186.1588
  L 496.3346 225.7587
  A 4.88 4.88 0.0 0 0 501.2231 230.6302
  L 501.4631 230.6298
  A 4.88 4.88 0.0 0 0 506.3345 225.7412
  L 506.2654 186.1413
  Z
  M 524.4223 205.1825
  A 4.75 4.75 0.0 0 0 519.6558 200.4492
  L 519.1358 200.4510
  A 4.75 4.75 0.0 0 0 514.4024 205.2175
  L 514.4377 215.3375
  A 4.75 4.75 0.0 0 0 519.2042 220.0708
  L 519.7242 220.0690
  A 4.75 4.75 0.0 0 0 524.4576 215.3025
  L 524.4223 205.1825
  Z
  M 355.7062 208.1886
  A 4.72 4.72 0.0 0 0 350.9945 203.4604
  L 350.5745 203.4597
  A 4.72 4.72 0.0 0 0 345.8462 208.1714
  L 345.7938 238.2314
  A 4.72 4.72 0.0 0 0 350.5055 242.9596
  L 350.9255 242.9603
  A 4.72 4.72 0.0 0 0 355.6538 238.2486
  L 355.7062 208.1886
  Z
  M 485.8775 235.4087
  A 4.79 4.79 0.0 0 0 481.0958 230.6103
  L 480.7358 230.6097
  A 4.79 4.79 0.0 0 0 475.9375 235.3913
  L 475.9025 255.4113
  A 4.79 4.79 0.0 0 0 480.6842 260.2097
  L 481.0442 260.2103
  A 4.79 4.79 0.0 0 0 485.8425 255.4287
  L 485.8775 235.4087
  Z
  M 338.6088 237.8887
  A 4.75 4.75 0.0 0 0 333.8671 233.1305
  L 333.3671 233.1296
  A 4.75 4.75 0.0 0 0 328.6089 237.8713
  L 328.5912 248.0113
  A 4.75 4.75 0.0 0 0 333.3329 252.7695
  L 333.8329 252.7704
  A 4.75 4.75 0.0 0 0 338.5911 248.0287
  L 338.6088 237.8887
  Z
  M 318.6738 247.6414
  A 4.80 4.80 0.0 0 0 313.8654 242.8498
  L 313.5854 242.8503
  A 4.80 4.80 0.0 0 0 308.7938 247.6586
  L 308.8462 277.7186
  A 4.80 4.80 0.0 0 0 313.6546 282.5102
  L 313.9346 282.5097
  A 4.80 4.80 0.0 0 0 318.7262 277.7014
  L 318.6738 247.6414
  Z
  M 368.05 250.09
  A 4.74 4.74 0.0 0 0 363.31 245.35
  L 362.95 245.35
  A 4.74 4.74 0.0 0 0 358.21 250.09
  L 358.21 270.29
  A 4.74 4.74 0.0 0 0 362.95 275.03
  L 363.31 275.03
  A 4.74 4.74 0.0 0 0 368.05 270.29
  L 368.05 250.09
  Z
  M 387.88 255.12
  A 4.84 4.84 0.0 0 0 383.04 250.28
  L 382.76 250.28
  A 4.84 4.84 0.0 0 0 377.92 255.12
  L 377.92 285.00
  A 4.84 4.84 0.0 0 0 382.76 289.84
  L 383.04 289.84
  A 4.84 4.84 0.0 0 0 387.88 285.00
  L 387.88 255.12
  Z
  M 466.72 255.08
  A 4.79 4.79 0.0 0 0 461.93 250.29
  L 461.61 250.29
  A 4.79 4.79 0.0 0 0 456.82 255.08
  L 456.82 285.06
  A 4.79 4.79 0.0 0 0 461.61 289.85
  L 461.93 289.85
  A 4.79 4.79 0.0 0 0 466.72 285.06
  L 466.72 255.08
  Z
  M 279.3125 267.4113
  A 4.83 4.83 0.0 0 0 274.4741 262.5897
  L 274.1141 262.5903
  A 4.83 4.83 0.0 0 0 269.2925 267.4288
  L 269.3275 287.4887
  A 4.83 4.83 0.0 0 0 274.1659 292.3103
  L 274.5259 292.3097
  A 4.83 4.83 0.0 0 0 279.3475 287.4712
  L 279.3125 267.4113
  Z
  M 407.5440 274.9013
  A 4.85 4.85 0.0 0 0 402.6856 270.0598
  L 402.3856 270.0603
  A 4.85 4.85 0.0 0 0 397.5440 274.9187
  L 397.5960 304.6787
  A 4.85 4.85 0.0 0 0 402.4544 309.5202
  L 402.7544 309.5197
  A 4.85 4.85 0.0 0 0 407.5960 304.6613
  L 407.5440 274.9013
  Z
  M 299.06 277.21
  A 4.69 4.69 0.0 0 0 294.37 272.52
  L 293.87 272.52
  A 4.69 4.69 0.0 0 0 289.18 277.21
  L 289.18 287.59
  A 4.69 4.69 0.0 0 0 293.87 292.28
  L 294.37 292.28
  A 4.69 4.69 0.0 0 0 299.06 287.59
  L 299.06 277.21
  Z
  M 239.8875 284.6987
  A 4.80 4.80 0.0 0 0 235.0959 279.8903
  L 234.7359 279.8897
  A 4.80 4.80 0.0 0 0 229.9275 284.6813
  L 229.8925 304.7613
  A 4.80 4.80 0.0 0 0 234.6841 309.5697
  L 235.0441 309.5703
  A 4.80 4.80 0.0 0 0 239.8525 304.7787
  L 239.8875 284.6987
  Z
  M 427.36 284.75
  A 4.83 4.83 0.0 0 0 422.53 279.92
  L 422.17 279.92
  A 4.83 4.83 0.0 0 0 417.34 284.75
  L 417.34 304.69
  A 4.83 4.83 0.0 0 0 422.17 309.52
  L 422.53 309.52
  A 4.83 4.83 0.0 0 0 427.36 304.69
  L 427.36 284.75
  Z
  M 447.09 284.67
  A 4.79 4.79 0.0 0 0 442.30 279.88
  L 442.00 279.88
  A 4.79 4.79 0.0 0 0 437.21 284.67
  L 437.21 314.65
  A 4.79 4.79 0.0 0 0 442.00 319.44
  L 442.30 319.44
  A 4.79 4.79 0.0 0 0 447.09 314.65
  L 447.09 284.67
  Z
  M 259.5761 294.5487
  A 4.84 4.84 0.0 0 0 254.7446 289.7003
  L 254.4646 289.6998
  A 4.84 4.84 0.0 0 0 249.6162 294.5313
  L 249.5639 324.4913
  A 4.84 4.84 0.0 0 0 254.3954 329.3397
  L 254.6754 329.3402
  A 4.84 4.84 0.0 0 0 259.5238 324.5087
  L 259.5761 294.5487
  Z
  M 220.0037 304.3115
  A 4.78 4.78 0.0 0 0 215.2154 299.5398
  L 214.9554 299.5403
  A 4.78 4.78 0.0 0 0 210.1837 304.3286
  L 210.2363 334.4285
  A 4.78 4.78 0.0 0 0 215.0246 339.2002
  L 215.2846 339.1997
  A 4.78 4.78 0.0 0 0 220.0563 334.4114
  L 220.0037 304.3115
  Z"
/>
<rect fill="#000000" x="516.06" y="151.60" width="9.98" height="39.62" rx="4.86"/>
<rect fill="#000000" x="-5.00" y="-24.68" transform="translate(501.30,205.95) rotate(-0.1)" width="10.00" height="49.36" rx="4.88"/>
<rect fill="#000000" x="-5.01" y="-9.81" transform="translate(519.43,210.26) rotate(-0.2)" width="10.02" height="19.62" rx="4.75"/>
<rect fill="#000000" x="-4.93" y="-19.75" transform="translate(350.75,223.21) rotate(0.1)" width="9.86" height="39.50" rx="4.72"/>
<rect fill="#000000" x="-4.97" y="-14.80" transform="translate(480.89,245.41) rotate(0.1)" width="9.94" height="29.60" rx="4.79"/>
<rect fill="#000000" x="-5.00" y="-9.82" transform="translate(333.60,242.95) rotate(0.1)" width="10.00" height="19.64" rx="4.75"/>
<rect fill="#000000" x="-4.94" y="-19.83" transform="translate(313.76,262.68) rotate(-0.1)" width="9.88" height="39.66" rx="4.80"/>
<rect fill="#000000" x="358.21" y="245.35" width="9.84" height="29.68" rx="4.74"/>
<rect fill="#000000" x="377.92" y="250.28" width="9.96" height="39.56" rx="4.84"/>
<rect fill="#000000" x="456.82" y="250.29" width="9.90" height="39.56" rx="4.79"/>
<rect fill="#000000" x="-5.01" y="-14.86" transform="translate(274.32,277.45) rotate(-0.1)" width="10.02" height="29.72" rx="4.83"/>
<rect fill="#000000" x="-5.00" y="-19.73" transform="translate(402.57,289.79) rotate(-0.1)" width="10.00" height="39.46" rx="4.85"/>
<rect fill="#000000" x="289.18" y="272.52" width="9.88" height="19.76" rx="4.69"/>
<rect fill="#000000" x="-4.98" y="-14.84" transform="translate(234.89,294.73) rotate(0.1)" width="9.96" height="29.68" rx="4.80"/>
<rect fill="#000000" x="417.34" y="279.92" width="10.02" height="29.60" rx="4.83"/>
<rect fill="#000000" x="437.21" y="279.88" width="9.88" height="39.56" rx="4.79"/>
<rect fill="#000000" x="-4.98" y="-19.82" transform="translate(254.57,309.52) rotate(0.1)" width="9.96" height="39.64" rx="4.84"/>
<rect fill="#000000" x="-4.91" y="-19.83" transform="translate(215.12,319.37) rotate(-0.1)" width="9.82" height="39.66" rx="4.78"/>
</svg>
